#tb 0: 100/2997
#media_type 0: video
#codec_id 0: rawvideo
#dimensions 0: 720x480
#sar 0: 1/1
#tb 1: 1/1000
#media_type 1: audio
#codec_id 1: dts
#sample_rate 1: 48000
#channel_layout 1: 60f
#channel_layout_name 1: 5.1(side)
0,          0,          0,        1,   518400, 0x6b05d48a
1,         27,         27,       10,     2013, 0x68e7b03a
0,          1,          1,        1,   518400, 0x2c2219cd
1,         37,         37,       10,     2013, 0x0b1d88d3
1,         47,         47,       10,     2013, 0x65febc94
1,         57,         57,       10,     2013, 0x1bb4b445
0,          2,          2,        1,   518400, 0xa71638c3
1,         67,         67,       10,     2013, 0x88819a72
1,         77,         77,       10,     2013, 0x35b89574
1,         87,         87,       10,     2013, 0x1f08c7e3
1,         97,         97,       10,     2013, 0x0afc948f
0,          3,          3,        1,   518400, 0x54bda463
1,        112,        112,       10,     2013, 0x1d14a693
1,        122,        122,       10,     2013, 0x53acb554
1,        132,        132,       10,     2013, 0x71d0a075
0,          4,          4,        1,   518400, 0xd1e00574
1,        142,        142,       10,     2013, 0xdcc8a88a
1,        152,        152,       10,     2013, 0xd1b6a8a2
1,        162,        162,       10,     2013, 0x46bba243
0,          5,          5,        1,   518400, 0x53b07f2d
1,        172,        172,       10,     2013, 0xdcbe9933
1,        182,        182,       10,     2013, 0xdef5ab52
1,        198,        198,       10,     2013, 0xd16e8245
0,          6,          6,        1,   518400, 0x4d19c80b
1,        208,        208,       10,     2013, 0x5567acd7
1,        218,        218,       10,     2013, 0xfb129919
1,        228,        228,       10,     2013, 0x26f8b101
0,          7,          7,        1,   518400, 0xd34866a2
1,        238,        238,       10,     2013, 0xa903aff2
1,        248,        248,       10,     2013, 0x056ba445
1,        258,        258,       10,     2013, 0xd30ab214
0,          8,          8,        1,   518400, 0x0321c3db
1,        268,        268,       10,     2013, 0x35409ef0
1,        283,        283,       10,     2013, 0xa01b99a8
1,        293,        293,       10,     2013, 0x776da122
0,          9,          9,        1,   518400, 0x3f460a79
1,        303,        303,       10,     2013, 0x411ea855
1,        313,        313,       10,     2013, 0x0f199df4
1,        323,        323,       10,     2013, 0xb0598e93
1,        333,        333,       10,     2013, 0xc63a905a
0,         10,         10,        1,   518400, 0x71202482
1,        343,        343,       10,     2013, 0x3fbabd24
1,        353,        353,       10,     2013, 0xfd55ba5c
0,         11,         11,        1,   518400, 0x2f7df36e
1,        368,        368,       10,     2013, 0xf260b04e
1,        378,        378,       10,     2013, 0xa1f6a1cf
1,        388,        388,       10,     2013, 0x3559a529
1,        398,        398,       10,     2013, 0x956e95ed
0,         12,         12,        1,   518400, 0xaf9888c4
1,        408,        408,       10,     2013, 0xb9d3a2f8
1,        418,        418,       10,     2013, 0x3eda8113
1,        428,        428,       10,     2013, 0x367fa367
0,         13,         13,        1,   518400, 0x2055a657
1,        438,        438,       10,     2013, 0xc2fe9685
1,        454,        454,       10,     2013, 0xf7aead38
1,        464,        464,       10,     2013, 0x49ada587
0,         14,         14,        1,   518400, 0x22ccda4c
1,        474,        474,       10,     2013, 0x8c0ca225
1,        484,        484,       10,     2013, 0x29ee9122
1,        494,        494,       10,     2013, 0x6ce1976a
0,         15,         15,        1,   518400, 0xd6adb9a7
1,        504,        504,       10,     2013, 0x6a0b9d5b
1,        514,        514,       10,     2013, 0x1337a33b
1,        524,        524,       10,     2013, 0xaa12a3b0
0,         16,         16,        1,   518400, 0x6a7dd791
1,        539,        539,       10,     2013, 0xaf59aaf4
1,        549,        549,       10,     2013, 0x4ffab2c5
1,        559,        559,       10,     2013, 0x56249944
0,         17,         17,        1,   518400, 0x5c3319c7
1,        569,        569,       10,     2013, 0x95f6ad07
1,        579,        579,       10,     2013, 0xb8e6a610
1,        589,        589,       10,     2013, 0xaee2948b
1,        599,        599,       10,     2013, 0xc686adac
0,         18,         18,        1,   518400, 0xe9b5a47d
1,        609,        609,       10,     2013, 0x6bcdb073
1,        624,        624,       10,     2013, 0x26d496b2
0,         19,         19,        1,   518400, 0xf0bd6556
1,        634,        634,       10,     2013, 0xaa419b09
1,        644,        644,       10,     2013, 0xee6ba974
1,        654,        654,       10,     2013, 0x690893b8
1,        664,        664,       10,     2013, 0xaa7eb6c5
0,         20,         20,        1,   518400, 0x6b16e31b
1,        674,        674,       10,     2013, 0x73e094c3
1,        684,        684,       10,     2013, 0xa297a539
1,        694,        694,       10,     2013, 0x15e7a304
0,         21,         21,        1,   518400, 0x859b3832
1,        710,        710,       10,     2013, 0xc8dfaa11
1,        720,        720,       10,     2013, 0xc2b5939b
1,        730,        730,       10,     2013, 0xecaaab92
0,         22,         22,        1,   518400, 0x36b426b8
1,        740,        740,       10,     2013, 0xc522ab70
1,        750,        750,       10,     2013, 0x1668985c
1,        760,        760,       10,     2013, 0x59a596f7
0,         23,         23,        1,   518400, 0x60f3e06a
1,        770,        770,       10,     2013, 0x12d8a3c4
1,        780,        780,       10,     2013, 0x71f1b02f
1,        795,        795,       10,     2013, 0x7138c757
0,         24,         24,        1,   518400, 0xe56a65a3
1,        805,        805,       10,     2013, 0x199d9631
1,        815,        815,       10,     2013, 0x8955ae90
1,        825,        825,       10,     2013, 0xbdf0a97d
0,         25,         25,        1,   518400, 0x5641e549
1,        835,        835,       10,     2013, 0x47faa1e7
1,        845,        845,       10,     2013, 0x01bbb638
1,        855,        855,       10,     2013, 0x4e4da199
1,        865,        865,       10,     2013, 0x3ba7abf4
0,         26,         26,        1,   518400, 0x7b51a06b
1,        880,        880,       10,     2013, 0xa3fda508
1,        890,        890,       10,     2013, 0x81c0ad1d
1,        900,        900,       10,     2013, 0x93beaf3b
0,         27,         27,        1,   518400, 0xc6f53f46
1,        910,        910,       10,     2013, 0xe30eac59
1,        920,        920,       10,     2013, 0x797eaa78
1,        930,        930,       10,     2013, 0xca4e8f1e
0,         28,         28,        1,   518400, 0x2e12e6c4
1,        940,        940,       10,     2013, 0x39fa945d
1,        950,        950,       10,     2013, 0xff31b5d6
1,        966,        966,       10,     2013, 0x3b7e9efa
0,         29,         29,        1,   518400, 0xebc97246
1,        976,        976,       10,     2013, 0xc3e6b7b5
1,        986,        986,       10,     2013, 0x37c7c3f9
1,        996,        996,       10,     2013, 0x2966c8b8
0,         30,         30,        1,   518400, 0x814ca8fa
1,       1006,       1006,       10,     2013, 0xc1b79ccd
1,       1016,       1016,       10,     2013, 0x80afad19
1,       1026,       1026,       10,     2013, 0xb2f2adc4
0,         31,         31,        1,   518400, 0xc875f1f8
1,       1036,       1036,       10,     2013, 0xfed29216
1,       1051,       1051,       10,     2013, 0x47ebb382
1,       1061,       1061,       10,     2013, 0x5f89bb83
0,         32,         32,        1,   518400, 0x11295e3b
1,       1071,       1071,       10,     2013, 0x0e07ab5d
1,       1081,       1081,       10,     2013, 0x6f00af38
1,       1091,       1091,       10,     2013, 0xe7fcadfb
1,       1101,       1101,       10,     2013, 0x34c0a648
0,         33,         33,        1,   518400, 0x5895f2f4
1,       1111,       1111,       10,     2013, 0x24c88fe2
1,       1121,       1121,       10,     2013, 0xe57e9d1f
0,         34,         34,        1,   518400, 0x2bdbb858
1,       1136,       1136,       10,     2013, 0xda03a3d8
1,       1146,       1146,       10,     2013, 0x5655b308
1,       1156,       1156,       10,     2013, 0x13a7c01d
1,       1166,       1166,       10,     2013, 0x56559682
0,         35,         35,        1,   518400, 0x5f296abe
1,       1176,       1176,       10,     2013, 0x26d8cca6
1,       1186,       1186,       10,     2013, 0x0ac79ed5
1,       1196,       1196,       10,     2013, 0x353fadcf
0,         36,         36,        1,   518400, 0x0b00e1f2
1,       1206,       1206,       10,     2013, 0xc5d9a96e
1,       1222,       1222,       10,     2013, 0xf51ba278
1,       1232,       1232,       10,     2013, 0x7bf0b79e
0,         37,         37,        1,   518400, 0x64afd3fc
1,       1242,       1242,       10,     2013, 0xbbc58df7
1,       1252,       1252,       10,     2013, 0xa1739cc8
1,       1262,       1262,       10,     2013, 0x34deaec6
0,         38,         38,        1,   518400, 0xc1ae1d85
1,       1272,       1272,       10,     2013, 0x750ba20b
1,       1282,       1282,       10,     2013, 0xaaccacfa
1,       1292,       1292,       10,     2013, 0x02cc9b72
0,         39,         39,        1,   518400, 0x5189f5e6
1,       1307,       1307,       10,     2013, 0xc1c6aa7e
1,       1317,       1317,       10,     2013, 0xd609ab26
1,       1327,       1327,       10,     2013, 0xc880a135
0,         40,         40,        1,   518400, 0x61c7dc36
1,       1337,       1337,       10,     2013, 0xddc4bc69
1,       1347,       1347,       10,     2013, 0x934caf65
1,       1357,       1357,       10,     2013, 0xafa6af4a
1,       1367,       1367,       10,     2013, 0x886eab2b
0,         41,         41,        1,   518400, 0xc0e617c8
1,       1377,       1377,       10,     2013, 0x7880a5ac
1,       1392,       1392,       10,     2013, 0x55cf9a72
0,         42,         42,        1,   518400, 0xcc78bfbf
1,       1402,       1402,       10,     2013, 0xff199a41
1,       1412,       1412,       10,     2013, 0xdbc7a029
1,       1422,       1422,       10,     2013, 0x1012940a
0,         43,         43,        1,   518400, 0x8a9b924f
1,       1435,       1435,       10,     2013, 0x0598b84f
1,       1445,       1445,       10,     2013, 0x2dea9296
1,       1455,       1455,       10,     2013, 0x443580c3
1,       1465,       1465,       10,     2013, 0x8d319f10
0,         44,         44,        1,   518400, 0xb21db38a
1,       1475,       1475,       10,     2013, 0xacf4acfe
1,       1485,       1485,       10,     2013, 0x82b0ac7b
1,       1495,       1495,       10,     2013, 0x9a7cb71c
0,         45,         45,        1,   518400, 0xd5ab5f27
1,       1505,       1505,       10,     2013, 0xbe7c9bc4
1,       1520,       1520,       10,     2013, 0x93cba1fd
1,       1530,       1530,       10,     2013, 0x7fb7b11f
0,         46,         46,        1,   518400, 0xc1b7b060
1,       1540,       1540,       10,     2013, 0xd9dea46b
1,       1550,       1550,       10,     2013, 0xfe11a5b2
1,       1560,       1560,       10,     2013, 0x0243a937
0,         47,         47,        1,   518400, 0x4cd477e8
1,       1570,       1570,       10,     2013, 0x1eaba981
1,       1580,       1580,       10,     2013, 0x088f9626
1,       1590,       1590,       10,     2013, 0x4f1aa59a
0,         48,         48,        1,   518400, 0x84fb48b3
1,       1606,       1606,       10,     2013, 0x0352b14d
1,       1616,       1616,       10,     2013, 0x03cc9bf9
1,       1626,       1626,       10,     2013, 0xa9949060
0,         49,         49,        1,   518400, 0x6d2fdd37
1,       1636,       1636,       10,     2013, 0x07a89509
1,       1646,       1646,       10,     2013, 0x1e588e8a
1,       1656,       1656,       10,     2013, 0x7845b7c1
1,       1666,       1666,       10,     2013, 0x676fa3c7
0,         50,         50,        1,   518400, 0xf754edd8
1,       1676,       1676,       10,     2013, 0xe5bfae55
1,       1691,       1691,       10,     2013, 0xb1bc9249
1,       1701,       1701,       10,     2013, 0xecd7abfb
0,         51,         51,        1,   518400, 0x520cbdcd
1,       1711,       1711,       10,     2013, 0x0389a6d5
1,       1721,       1721,       10,     2013, 0xf9b69da1
1,       1731,       1731,       10,     2013, 0x2bbaafc4
0,         52,         52,        1,   518400, 0x54a53c59
1,       1741,       1741,       10,     2013, 0x45738eb2
1,       1751,       1751,       10,     2013, 0xf28ea9b6
1,       1761,       1761,       10,     2013, 0x0d6dab7a
0,         53,         53,        1,   518400, 0xbb9d3c93
1,       1776,       1776,       10,     2013, 0x6c04b586
1,       1786,       1786,       10,     2013, 0x74e4b50c
1,       1796,       1796,       10,     2013, 0x7cd6ad9b
0,         54,         54,        1,   518400, 0xbb84e583
1,       1806,       1806,       10,     2013, 0x70c79d83
1,       1816,       1816,       10,     2013, 0x741eab3c
1,       1826,       1826,       10,     2013, 0xb972a8cf
0,         55,         55,        1,   518400, 0xf03b9f4f
1,       1836,       1836,       10,     2013, 0x4143a734
1,       1846,       1846,       10,     2013, 0xa98cb454
1,       1862,       1862,       10,     2013, 0x51e89073
0,         56,         56,        1,   518400, 0x8b88635d
1,       1872,       1872,       10,     2013, 0x192cb418
1,       1882,       1882,       10,     2013, 0x6c55aa29
1,       1892,       1892,       10,     2013, 0xf86fad70
0,         57,         57,        1,   518400, 0x975fb58d
1,       1902,       1902,       10,     2013, 0x06eca62d
1,       1912,       1912,       10,     2013, 0xe4f2a1d2
1,       1922,       1922,       10,     2013, 0xe542afb6
1,       1932,       1932,       10,     2013, 0x77f1b0c3
0,         58,         58,        1,   518400, 0x9d63c101
1,       1947,       1947,       10,     2013, 0x27ce9cd1
1,       1957,       1957,       10,     2013, 0x6c8d8f02
1,       1967,       1967,       10,     2013, 0x32afa383
0,         59,         59,        1,   518400, 0x6e739153
1,       1977,       1977,       10,     2013, 0xb90c88a7
1,       1987,       1987,       10,     2013, 0x10b494ed
1,       1997,       1997,       10,     2013, 0x0cf8a595
0,         60,         60,        1,   518400, 0xaf6a5fac
1,       2007,       2007,       10,     2013, 0x09f88863
1,       2017,       2017,       10,     2013, 0x67f5a87e
1,       2032,       2032,       10,     2013, 0xc63892b8
0,         61,         61,        1,   518400, 0xc87efe9c
1,       2042,       2042,       10,     2013, 0x6de9935c
1,       2052,       2052,       10,     2013, 0xadfcb473
1,       2062,       2062,       10,     2013, 0x7ba9abe7
0,         62,         62,        1,   518400, 0xdf47969f
1,       2072,       2072,       10,     2013, 0x6b79b6c8
1,       2082,       2082,       10,     2013, 0xae46b670
1,       2092,       2092,       10,     2013, 0xa3fb9961
1,       2102,       2102,       10,     2013, 0x3413a4cb
0,         63,         63,        1,   518400, 0xfa5d2ab0
1,       2118,       2118,       10,     2013, 0x2c16b48e
1,       2128,       2128,       10,     2013, 0xd2559fd5
0,         64,         64,        1,   518400, 0x7428a46a
1,       2138,       2138,       10,     2013, 0xafdeb68d
1,       2148,       2148,       10,     2013, 0x52f79c97
1,       2158,       2158,       10,     2013, 0x6f2091e1
1,       2168,       2168,       10,     2013, 0x03fca1fd
0,         65,         65,        1,   518400, 0x3c6c93d9
1,       2178,       2178,       10,     2013, 0x62d98a8b
1,       2188,       2188,       10,     2013, 0x727c9845
0,         66,         66,        1,   518400, 0x9a2fde5d
1,       2203,       2203,       10,     2013, 0x8103ae15
1,       2213,       2213,       10,     2013, 0x7bcaa4fc
1,       2223,       2223,       10,     2013, 0x2d809a43
1,       2233,       2233,       10,     2013, 0xaa20ab9d
0,         67,         67,        1,   518400, 0x3858fd67
1,       2243,       2243,       10,     2013, 0x40c0b8f1
1,       2253,       2253,       10,     2013, 0x412c9a7e
1,       2263,       2263,       10,     2013, 0xc7159943
0,         68,         68,        1,   518400, 0x7d65fc58
1,       2273,       2273,       10,     2013, 0x3c83a3c1
1,       2288,       2288,       10,     2013, 0xf1b0b7b5
1,       2298,       2298,       10,     2013, 0xf7b8a928
0,         69,         69,        1,   518400, 0xdcbd4b53
1,       2308,       2308,       10,     2013, 0xb3ec9f8c
1,       2318,       2318,       10,     2013, 0x088db3b4
1,       2328,       2328,       10,     2013, 0xd3b7b01d
0,         70,         70,        1,   518400, 0x03f733d2
1,       2338,       2338,       10,     2013, 0x26e9c747
1,       2348,       2348,       10,     2013, 0xb34978e2
1,       2358,       2358,       10,     2013, 0x91dbb10c
0,         71,         71,        1,   518400, 0x58d917b0
1,       2374,       2374,       10,     2013, 0xd9d3a2f1
1,       2384,       2384,       10,     2013, 0x39f5b151
1,       2394,       2394,       10,     2013, 0x29fb91e0
0,         72,         72,        1,   518400, 0x1898371f
1,       2404,       2404,       10,     2013, 0x93d4b550
1,       2414,       2414,       10,     2013, 0x290fa162
1,       2424,       2424,       10,     2013, 0x5e169f0b
1,       2434,       2434,       10,     2013, 0x2f53acff
0,         73,         73,        1,   518400, 0x2f5b5418
1,       2444,       2444,       10,     2013, 0x0173ab1d
1,       2459,       2459,       10,     2013, 0x3f37a8f8
1,       2469,       2469,       10,     2013, 0xe61baa50
0,         74,         74,        1,   518400, 0xa71f5a29
1,       2479,       2479,       10,     2013, 0x25be9bb7
1,       2489,       2489,       10,     2013, 0x73109dcc
1,       2499,       2499,       10,     2013, 0x2d89b116
0,         75,         75,        1,   518400, 0xad78426b
1,       2509,       2509,       10,     2013, 0x0ae5adbe
1,       2519,       2519,       10,     2013, 0x64a798ae
1,       2529,       2529,       10,     2013, 0x583fac0c
0,         76,         76,        1,   518400, 0x0c9155e3
1,       2544,       2544,       10,     2013, 0xe752b7be
1,       2554,       2554,       10,     2013, 0xb3fb9d5d
1,       2564,       2564,       10,     2013, 0xaeb0bf93
0,         77,         77,        1,   518400, 0x4fac4817
1,       2574,       2574,       10,     2013, 0xab61c17d
1,       2584,       2584,       10,     2013, 0x92d2add0
1,       2594,       2594,       10,     2013, 0xb34b96ec
0,         78,         78,        1,   518400, 0xcacb963e
1,       2604,       2604,       10,     2013, 0x9cb19d35
1,       2614,       2614,       10,     2013, 0xb7b3b961
1,       2630,       2630,       10,     2013, 0x2a52a20b
0,         79,         79,        1,   518400, 0x3a6183cc
1,       2640,       2640,       10,     2013, 0x059eaf06
1,       2650,       2650,       10,     2013, 0x0d49ac8a
1,       2660,       2660,       10,     2013, 0x095b97cf
0,         80,         80,        1,   518400, 0x65d47e90
1,       2670,       2670,       10,     2013, 0x03e28d94
1,       2680,       2680,       10,     2013, 0x50d79f48
1,       2690,       2690,       10,     2013, 0x71c9a459
1,       2700,       2700,       10,     2013, 0x8cd6affc
0,         81,         81,        1,   518400, 0xf9b7e517
1,       2715,       2715,       10,     2013, 0x89fba9c9
1,       2725,       2725,       10,     2013, 0x74a1b800
1,       2735,       2735,       10,     2013, 0x675dc84d
0,         82,         82,        1,   518400, 0x8aac2e66
1,       2745,       2745,       10,     2013, 0x25fe8f0c
1,       2755,       2755,       10,     2013, 0xf38da26b
1,       2765,       2765,       10,     2013, 0x1d04a500
0,         83,         83,        1,   518400, 0x555456e4
1,       2775,       2775,       10,     2013, 0xf01cb227
1,       2785,       2785,       10,     2013, 0xe37e9028
1,       2800,       2800,       10,     2013, 0xf6b5aa7c
0,         84,         84,        1,   518400, 0x73bc6194
1,       2810,       2810,       10,     2013, 0xea2391b0
1,       2820,       2820,       10,     2013, 0xb234abcd
1,       2830,       2830,       10,     2013, 0x5840a50f
0,         85,         85,        1,   518400, 0x147b678a
1,       2840,       2840,       10,     2013, 0x482cad7b
1,       2850,       2850,       10,     2013, 0xd085a629
1,       2860,       2860,       10,     2013, 0x1adf8ea8
0,         86,         86,        1,   518400, 0x67209622
1,       2870,       2870,       10,     2013, 0xbc3aba31
1,       2886,       2886,       10,     2013, 0x5e7ea857
1,       2896,       2896,       10,     2013, 0x7e669671
0,         87,         87,        1,   518400, 0xdbf0438b
1,       2906,       2906,       10,     2013, 0xe2d39670
1,       2916,       2916,       10,     2013, 0xe829b4a8
1,       2926,       2926,       10,     2013, 0x5b73a363
1,       2936,       2936,       10,     2013, 0xc1ffa824
0,         88,         88,        1,   518400, 0xe712b764
1,       2946,       2946,       10,     2013, 0x919ba91a
1,       2956,       2956,       10,     2013, 0xa1799be7
0,         89,         89,        1,   518400, 0xf396de88
1,       2971,       2971,       10,     2013, 0x9b8e92c1
1,       2981,       2981,       10,     2013, 0x5ddeb554
1,       2991,       2991,       10,     2013, 0xf6b99d0b
1,       3001,       3001,       10,     2013, 0x6987c4a4
0,         90,         90,        1,   518400, 0x5bb4a81d
1,       3011,       3011,       10,     2013, 0xf3be9f72
1,       3021,       3021,       10,     2013, 0xae51a2ef
1,       3031,       3031,       10,     2013, 0x5c23aaac
0,         91,         91,        1,   518400, 0x731a98c8
1,       3041,       3041,       10,     2013, 0xe7a9a994
1,       3056,       3056,       10,     2013, 0xdd10a997
1,       3066,       3066,       10,     2013, 0x76e0a749
0,         92,         92,        1,   518400, 0xb0f61608
1,       3076,       3076,       10,     2013, 0x899ea6fb
1,       3086,       3086,       10,     2013, 0xc8449029
1,       3096,       3096,       10,     2013, 0x6a34b469
0,         93,         93,        1,   518400, 0x86845d11
1,       3106,       3106,       10,     2013, 0xf6f1b172
1,       3116,       3116,       10,     2013, 0x790796f8
1,       3126,       3126,       10,     2013, 0x190a874a
0,         94,         94,        1,   518400, 0x2511350a
1,       3142,       3142,       10,     2013, 0x99a4a5e3
1,       3152,       3152,       10,     2013, 0x9b619c33
1,       3162,       3162,       10,     2013, 0x2462a1c0
0,         95,         95,        1,   518400, 0xd08f20d1
1,       3172,       3172,       10,     2013, 0xd446b781
1,       3182,       3182,       10,     2013, 0xd421aec0
1,       3192,       3192,       10,     2013, 0x6a9d9164
1,       3202,       3202,       10,     2013, 0x02cbaf7f
0,         96,         96,        1,   518400, 0x0619c067
1,       3212,       3212,       10,     2013, 0x5ab1a098
1,       3227,       3227,       10,     2013, 0xe280ace1
0,         97,         97,        1,   518400, 0x9f54a84a
1,       3237,       3237,       10,     2013, 0x32d0aecf
1,       3247,       3247,       10,     2013, 0xb805a758
1,       3257,       3257,       10,     2013, 0x618ab629
1,       3267,       3267,       10,     2013, 0xe4c29e0d
0,         98,         98,        1,   518400, 0x00486dcf
1,       3277,       3277,       10,     2013, 0x9119a3ba
1,       3287,       3287,       10,     2013, 0x1f5ea3d0
1,       3297,       3297,       10,     2013, 0x903e99c2
0,         99,         99,        1,   518400, 0x6881078c
1,       3312,       3312,       10,     2013, 0x126b9e64
1,       3322,       3322,       10,     2013, 0xd207aa91
1,       3332,       3332,       10,     2013, 0x7a229fad
0,        100,        100,        1,   518400, 0x4873f7c2
1,       3342,       3342,       10,     2013, 0x7651aeda
1,       3352,       3352,       10,     2013, 0xb74c7f0c
1,       3362,       3362,       10,     2013, 0xaf9fbb89
0,        101,        101,        1,   518400, 0x63ab53c8
1,       3372,       3372,       10,     2013, 0xf0f5a62f
1,       3382,       3382,       10,     2013, 0xa2009133
1,       3398,       3398,       10,     2013, 0xb6d9a556
0,        102,        102,        1,   518400, 0xc768db1a
1,       3408,       3408,       10,     2013, 0x0f95a286
1,       3418,       3418,       10,     2013, 0x4fbe8975
1,       3428,       3428,       10,     2013, 0x18f19c54
0,        103,        103,        1,   518400, 0x5a4eb9c0
1,       3440,       3440,       10,     2013, 0x95769be6
1,       3450,       3450,       10,     2013, 0x739ba722
1,       3460,       3460,       10,     2013, 0xc7dda687
1,       3470,       3470,       10,     2013, 0xe322a3a4
0,        104,        104,        1,   518400, 0x0616fddd
1,       3480,       3480,       10,     2013, 0x4ce7ba9c
1,       3490,       3490,       10,     2013, 0x33748c20
1,       3500,       3500,       10,     2013, 0xdd98b65d
0,        105,        105,        1,   518400, 0xfdf176d6
1,       3510,       3510,       10,     2013, 0xd02e9cd6
1,       3526,       3526,       10,     2013, 0x81dbb3c7
1,       3536,       3536,       10,     2013, 0x3afba1e0
0,        106,        106,        1,   518400, 0x674998a2
1,       3546,       3546,       10,     2013, 0x735994ff
1,       3556,       3556,       10,     2013, 0xf54cbda2
1,       3566,       3566,       10,     2013, 0x3c53ad5b
0,        107,        107,        1,   518400, 0xc2401937
1,       3576,       3576,       10,     2013, 0x3a2595a8
1,       3586,       3586,       10,     2013, 0xb7b39f34
1,       3596,       3596,       10,     2013, 0x269fa949
0,        108,        108,        1,   518400, 0xbfa320f6
1,       3611,       3611,       10,     2013, 0x3519ab0b
1,       3621,       3621,       10,     2013, 0xb9f2a7c1
1,       3631,       3631,       10,     2013, 0xff47844c
0,        109,        109,        1,   518400, 0x4b4fa759
1,       3641,       3641,       10,     2013, 0x835ea1ef
1,       3651,       3651,       10,     2013, 0xf491bc4e
1,       3661,       3661,       10,     2013, 0x90bc88f0
0,        110,        110,        1,   518400, 0x0d3f30fa
1,       3671,       3671,       10,     2013, 0x6718ac48
1,       3681,       3681,       10,     2013, 0xfa85bdb6
1,       3696,       3696,       10,     2013, 0x645cb677
0,        111,        111,        1,   518400, 0x8e8b9202
1,       3706,       3706,       10,     2013, 0x6c47c630
1,       3716,       3716,       10,     2013, 0x10aa8813
1,       3726,       3726,       10,     2013, 0xfcb0afb3
1,       3736,       3736,       10,     2013, 0x5f499be8
0,        112,        112,        1,   518400, 0xf4b693c6
1,       3746,       3746,       10,     2013, 0xd1b5a128
1,       3756,       3756,       10,     2013, 0x303cc102
1,       3766,       3766,       10,     2013, 0xb6ca93df
0,        113,        113,        1,   518400, 0xce3dc275
1,       3782,       3782,       10,     2013, 0x0db7a475
1,       3792,       3792,       10,     2013, 0xf3f49ed7
1,       3802,       3802,       10,     2013, 0xf495a819
0,        114,        114,        1,   518400, 0xefbb7496
1,       3812,       3812,       10,     2013, 0x2b67a99d
1,       3822,       3822,       10,     2013, 0xe4efb19a
1,       3832,       3832,       10,     2013, 0xb0e897ca
0,        115,        115,        1,   518400, 0x6842b14e
1,       3842,       3842,       10,     2013, 0x338ebe28
1,       3852,       3852,       10,     2013, 0x0583ad3f
1,       3867,       3867,       10,     2013, 0x7ae1a08d
0,        116,        116,        1,   518400, 0x7a3fd65c
1,       3877,       3877,       10,     2013, 0x95a39f9c
1,       3887,       3887,       10,     2013, 0x4f7ea123
1,       3897,       3897,       10,     2013, 0x9efb9ba1
0,        117,        117,        1,   518400, 0x949e1e8b
1,       3907,       3907,       10,     2013, 0xf395b2cd
1,       3917,       3917,       10,     2013, 0x261a881e
1,       3927,       3927,       10,     2013, 0x7f2d9f72
1,       3937,       3937,       10,     2013, 0x0105b38d
0,        118,        118,        1,   518400, 0xfc6c09aa
1,       3952,       3952,       10,     2013, 0x0e5db67e
1,       3962,       3962,       10,     2013, 0xfc9baf97
0,        119,        119,        1,   518400, 0x561c2ff5
1,       3972,       3972,       10,     2013, 0x8e02a1b1
1,       3982,       3982,       10,     2013, 0x6eecaac8
1,       3992,       3992,       10,     2013, 0xf5558f0c
1,       4002,       4002,       10,     2013, 0x512ba99b
0,        120,        120,        1,   518400, 0xfd62e6bd
1,       4012,       4012,       10,     2013, 0x932b9932
1,       4022,       4022,       10,     2013, 0xc01ea987
0,        121,        121,        1,   518400, 0x0427a070
1,       4038,       4038,       10,     2013, 0x10879cf7
1,       4048,       4048,       10,     2013, 0x90679338
1,       4058,       4058,       10,     2013, 0x077d8a9e
1,       4068,       4068,       10,     2013, 0x969fa57c
0,        122,        122,        1,   518400, 0x0bf48fff
1,       4078,       4078,       10,     2013, 0xe049ab07
1,       4088,       4088,       10,     2013, 0xf535b3b3
1,       4098,       4098,       10,     2013, 0xfe76bd37
0,        123,        123,        1,   518400, 0x354d4700
1,       4108,       4108,       10,     2013, 0xde79ad8c
1,       4123,       4123,       10,     2013, 0xe89b9c47
1,       4133,       4133,       10,     2013, 0xc570b0f0
0,        124,        124,        1,   518400, 0x6081c80c
1,       4143,       4143,       10,     2013, 0xee709cd9
1,       4153,       4153,       10,     2013, 0xcfe5afab
1,       4163,       4163,       10,     2013, 0x98ff8ce4
0,        125,        125,        1,   518400, 0x9c6c51c6
1,       4173,       4173,       10,     2013, 0x9d19b44c
1,       4183,       4183,       10,     2013, 0x4349917a
1,       4193,       4193,       10,     2013, 0xbf54a59a
0,        126,        126,        1,   518400, 0xaacd34d7
1,       4208,       4208,       10,     2013, 0xc4a399e0
1,       4218,       4218,       10,     2013, 0x1bf58ff0
1,       4228,       4228,       10,     2013, 0x3518ac56
0,        127,        127,        1,   518400, 0x566bce8e
1,       4238,       4238,       10,     2013, 0xcd38c1de
1,       4248,       4248,       10,     2013, 0xbe7d9c4d
1,       4258,       4258,       10,     2013, 0xe113a306
1,       4268,       4268,       10,     2013, 0x083197ea
0,        128,        128,        1,   518400, 0xb14f68b3
1,       4278,       4278,       10,     2013, 0x1929b1eb
1,       4294,       4294,       10,     2013, 0x5d6ea5af
1,       4304,       4304,       10,     2013, 0x05519d53
0,        129,        129,        1,   518400, 0x00545b29
1,       4314,       4314,       10,     2013, 0x5773b380
1,       4324,       4324,       10,     2013, 0xaa70a8f5
1,       4334,       4334,       10,     2013, 0x990db0ec
0,        130,        130,        1,   518400, 0x984bede5
1,       4344,       4344,       10,     2013, 0x91d3a623
1,       4354,       4354,       10,     2013, 0xc91f9824
1,       4364,       4364,       10,     2013, 0x1d058abf
0,        131,        131,        1,   518400, 0x6b9319c6
1,       4379,       4379,       10,     2013, 0x8de1b8d5
1,       4389,       4389,       10,     2013, 0x7872b06b
1,       4399,       4399,       10,     2013, 0xa084c203
0,        132,        132,        1,   518400, 0x1582ae8c
1,       4409,       4409,       10,     2013, 0xff90ae8d
1,       4419,       4419,       10,     2013, 0x61dead8e
1,       4429,       4429,       10,     2013, 0xee76b284
0,        133,        133,        1,   518400, 0xece339b6
1,       4439,       4439,       10,     2013, 0xe888af7f
1,       4449,       4449,       10,     2013, 0x5d57b115
1,       4464,       4464,       10,     2013, 0xcdbfb1d0
0,        134,        134,        1,   518400, 0x74946b8b
1,       4474,       4474,       10,     2013, 0x2e28a952
1,       4484,       4484,       10,     2013, 0x4795a994
1,       4494,       4494,       10,     2013, 0x7e7ea304
1,       4504,       4504,       10,     2013, 0x9502c1e1
0,        135,        135,        1,   518400, 0x5dffc0d6
1,       4514,       4514,       10,     2013, 0xf7c78ab2
1,       4524,       4524,       10,     2013, 0x24049816
1,       4534,       4534,       10,     2013, 0x52089dcf
0,        136,        136,        1,   518400, 0x3f85c053
1,       4550,       4550,       10,     2013, 0x2150a0b1
1,       4560,       4560,       10,     2013, 0x3c2e9b93
1,       4570,       4570,       10,     2013, 0x491f932b
0,        137,        137,        1,   518400, 0x7124125d
1,       4580,       4580,       10,     2013, 0x31359cf8
1,       4590,       4590,       10,     2013, 0x1b00ac3f
1,       4600,       4600,       10,     2013, 0x8d7ab3cb
0,        138,        138,        1,   518400, 0x46b736d5
1,       4610,       4610,       10,     2013, 0xb2c2a4de
1,       4620,       4620,       10,     2013, 0x80a4abf2
1,       4635,       4635,       10,     2013, 0x0701a4ee
0,        139,        139,        1,   518400, 0x7bcac123
1,       4645,       4645,       10,     2013, 0xdc1ba5bc
1,       4655,       4655,       10,     2013, 0x6083a8a4
1,       4665,       4665,       10,     2013, 0x6226ad45
0,        140,        140,        1,   518400, 0x79899382
1,       4675,       4675,       10,     2013, 0x2732a205
1,       4685,       4685,       10,     2013, 0x0f62a0d3
1,       4695,       4695,       10,     2013, 0xc1799249
0,        141,        141,        1,   518400, 0x4a56acef
1,       4705,       4705,       10,     2013, 0xbccfa9c8
1,       4720,       4720,       10,     2013, 0xded096e7
1,       4730,       4730,       10,     2013, 0x7f0daf43
0,        142,        142,        1,   518400, 0xb0a983e5
1,       4740,       4740,       10,     2013, 0xc47ea682
1,       4750,       4750,       10,     2013, 0x5a72b07a
1,       4760,       4760,       10,     2013, 0x386faa8c
1,       4770,       4770,       10,     2013, 0xf9919a91
0,        143,        143,        1,   518400, 0xb49255cc
1,       4780,       4780,       10,     2013, 0x4908897e
1,       4790,       4790,       10,     2013, 0x4882b594
0,        144,        144,        1,   518400, 0x48808663
1,       4806,       4806,       10,     2013, 0x113e98d1
1,       4816,       4816,       10,     2013, 0x5098b30d
1,       4826,       4826,       10,     2013, 0x0ef7b857
1,       4836,       4836,       10,     2013, 0x216ea176
0,        145,        145,        1,   518400, 0xf5be828c
1,       4846,       4846,       10,     2013, 0xf906944a
1,       4856,       4856,       10,     2013, 0xee9b92fb
1,       4866,       4866,       10,     2013, 0xd6029209
0,        146,        146,        1,   518400, 0xb6688ea3
1,       4876,       4876,       10,     2013, 0x2256a12e
1,       4891,       4891,       10,     2013, 0x89de8e4a
1,       4901,       4901,       10,     2013, 0x0bf0a584
0,        147,        147,        1,   518400, 0x9eb2bfd1
1,       4911,       4911,       10,     2013, 0x6a5ebd58
1,       4921,       4921,       10,     2013, 0x3edd9aa4
1,       4931,       4931,       10,     2013, 0xbd66ac26
0,        148,        148,        1,   518400, 0xab3bdfb5
1,       4941,       4941,       10,     2013, 0x313896ea
1,       4951,       4951,       10,     2013, 0x6b83a6a0
1,       4961,       4961,       10,     2013, 0x9aafb109
0,        149,        149,        1,   518400, 0xe65f1d81
1,       4976,       4976,       10,     2013, 0x5192a85a
1,       4986,       4986,       10,     2013, 0x1f919f79
1,       4996,       4996,       10,     2013, 0xc0799c40
0,        150,        150,        1,   518400, 0x61ca8d13
1,       5006,       5006,       10,     2013, 0x2988bcd8
1,       5016,       5016,       10,     2013, 0x1482913a
1,       5026,       5026,       10,     2013, 0x74da9a94
1,       5036,       5036,       10,     2013, 0x763eb709
0,        151,        151,        1,   518400, 0xbdd0d82f
1,       5046,       5046,       10,     2013, 0x1285b405
1,       5062,       5062,       10,     2013, 0xb6ab9dfc
0,        152,        152,        1,   518400, 0xab1acaad
1,       5072,       5072,       10,     2013, 0xe4c8bf19
1,       5082,       5082,       10,     2013, 0xabbbade8
1,       5092,       5092,       10,     2013, 0xf8b69d89
1,       5102,       5102,       10,     2013, 0xce04a866
0,        153,        153,        1,   518400, 0x1889f31c
1,       5112,       5112,       10,     2013, 0x07528abf
1,       5122,       5122,       10,     2013, 0x74fb98bf
1,       5132,       5132,       10,     2013, 0x579fb1c9
0,        154,        154,        1,   518400, 0x02484cce
1,       5147,       5147,       10,     2013, 0x7ddea2ed
1,       5157,       5157,       10,     2013, 0x296caa2c
1,       5167,       5167,       10,     2013, 0x346d9c4f
0,        155,        155,        1,   518400, 0x59998165
1,       5177,       5177,       10,     2013, 0x3e1fba15
1,       5187,       5187,       10,     2013, 0x48a2908f
1,       5197,       5197,       10,     2013, 0xc1938d09
0,        156,        156,        1,   518400, 0x0f3dd671
1,       5207,       5207,       10,     2013, 0x0e96a060
1,       5217,       5217,       10,     2013, 0x7b6a9e06
1,       5232,       5232,       10,     2013, 0x5b779d28
0,        157,        157,        1,   518400, 0x378bee63
1,       5242,       5242,       10,     2013, 0xf600aca1
1,       5252,       5252,       10,     2013, 0x3a6c9e68
1,       5262,       5262,       10,     2013, 0x0c8dc1b0
0,        158,        158,        1,   518400, 0x0d8e17d2
1,       5272,       5272,       10,     2013, 0x26beb245
1,       5282,       5282,       10,     2013, 0x2bc09557
1,       5292,       5292,       10,     2013, 0x27fc8845
1,       5302,       5302,       10,     2013, 0x1025aa47
0,        159,        159,        1,   518400, 0x61f113bf
1,       5318,       5318,       10,     2013, 0xc2e69baa
1,       5328,       5328,       10,     2013, 0xdb249b92
1,       5338,       5338,       10,     2013, 0x6ccda29e
0,        160,        160,        1,   518400, 0x44ec211a
1,       5348,       5348,       10,     2013, 0xeaf6a1cf
1,       5358,       5358,       10,     2013, 0x509ba397
1,       5368,       5368,       10,     2013, 0xfaf8a2df
0,        161,        161,        1,   518400, 0xcb036306
1,       5378,       5378,       10,     2013, 0x41388f28
1,       5388,       5388,       10,     2013, 0xfe5eab39
1,       5403,       5403,       10,     2013, 0xd5ffa066
0,        162,        162,        1,   518400, 0x7f1dec7d
1,       5413,       5413,       10,     2013, 0x6813a30a
1,       5423,       5423,       10,     2013, 0x9be89718
1,       5433,       5433,       10,     2013, 0xaec3a27b
0,        163,        163,        1,   518400, 0x8b8c6640
1,       5446,       5446,       10,     2013, 0x579a983e
1,       5456,       5456,       10,     2013, 0x98cea21f
1,       5466,       5466,       10,     2013, 0xca77a58a
0,        164,        164,        1,   518400, 0xea04737c
1,       5476,       5476,       10,     2013, 0xcbc3b1ee
1,       5486,       5486,       10,     2013, 0xf3bb8f07
1,       5496,       5496,       10,     2013, 0x6aeebd92
0,        165,        165,        1,   518400, 0xe779fe0c
1,       5506,       5506,       10,     2013, 0xe955a449
1,       5516,       5516,       10,     2013, 0x9436aa5b
1,       5531,       5531,       10,     2013, 0x4f0a8f9f
0,        166,        166,        1,   518400, 0xcd78bf13
1,       5541,       5541,       10,     2013, 0x3551b22d
1,       5551,       5551,       10,     2013, 0x0959a3d4
1,       5561,       5561,       10,     2013, 0x2ed5a11b
1,       5571,       5571,       10,     2013, 0x8f52a5c3
0,        167,        167,        1,   518400, 0x45b0c048
1,       5581,       5581,       10,     2013, 0x6552978d
1,       5591,       5591,       10,     2013, 0x7dcca0c1
1,       5601,       5601,       10,     2013, 0xbcd4a3c9
0,        168,        168,        1,   518400, 0x9783dcd8
1,       5616,       5616,       10,     2013, 0xfe41a8d8
1,       5626,       5626,       10,     2013, 0xc85aae14
1,       5636,       5636,       10,     2013, 0x1185b346
0,        169,        169,        1,   518400, 0xbcd1514c
1,       5646,       5646,       10,     2013, 0xf7429a0d
1,       5656,       5656,       10,     2013, 0x48c2a160
1,       5666,       5666,       10,     2013, 0x9d85a85d
0,        170,        170,        1,   518400, 0xf229575f
1,       5676,       5676,       10,     2013, 0xbbe89fe9
1,       5686,       5686,       10,     2013, 0xea429fe2
1,       5702,       5702,       10,     2013, 0x221ca1d4
0,        171,        171,        1,   518400, 0x576e365e
1,       5712,       5712,       10,     2013, 0x394b925b
1,       5722,       5722,       10,     2013, 0x556dc26f
1,       5732,       5732,       10,     2013, 0xce21a5e1
0,        172,        172,        1,   518400, 0xa2d2d87b
1,       5742,       5742,       10,     2013, 0xbc87c0a8
1,       5752,       5752,       10,     2013, 0xbac4ac07
1,       5762,       5762,       10,     2013, 0xdeefa4aa
1,       5772,       5772,       10,     2013, 0x1f15b362
0,        173,        173,        1,   518400, 0x3804d74a
1,       5787,       5787,       10,     2013, 0x6406b7b2
1,       5797,       5797,       10,     2013, 0x8030a03d
0,        174,        174,        1,   518400, 0xf05de372
1,       5807,       5807,       10,     2013, 0x0373a5b1
1,       5817,       5817,       10,     2013, 0x34ef93da
1,       5827,       5827,       10,     2013, 0x94c198fe
1,       5837,       5837,       10,     2013, 0xfefcabad
0,        175,        175,        1,   518400, 0x21035b4f
1,       5847,       5847,       10,     2013, 0x8755b3ec
1,       5857,       5857,       10,     2013, 0xe436a6fd
1,       5872,       5872,       10,     2013, 0x9cf5a11e
0,        176,        176,        1,   518400, 0x6e97d583
1,       5882,       5882,       10,     2013, 0x03b8a98c
1,       5892,       5892,       10,     2013, 0x6216a138
1,       5902,       5902,       10,     2013, 0xd87b9f12
0,        177,        177,        1,   518400, 0x197879a9
1,       5912,       5912,       10,     2013, 0x4ce99653
1,       5922,       5922,       10,     2013, 0x6c2ea9e2
1,       5932,       5932,       10,     2013, 0x918cae4c
0,        178,        178,        1,   518400, 0x787780ee
1,       5942,       5942,       10,     2013, 0xd19fa5f2
1,       5958,       5958,       10,     2013, 0x0bdda7c6
1,       5968,       5968,       10,     2013, 0x0f9ab0ca
0,        179,        179,        1,   518400, 0x13fcc74d
1,       5978,       5978,       10,     2013, 0x410a92b1
1,       5988,       5988,       10,     2013, 0xcfbe9d1c
1,       5998,       5998,       10,     2013, 0x59ed9d15
0,        180,        180,        1,   518400, 0x9bd1c5da
1,       6008,       6008,       10,     2013, 0x4e129e27
1,       6018,       6018,       10,     2013, 0x7bb9ac0a
1,       6028,       6028,       10,     2013, 0x826ca82b
0,        181,        181,        1,   518400, 0x8e21e4ba
1,       6043,       6043,       10,     2013, 0x9ad5a74b
1,       6053,       6053,       10,     2013, 0x6c5f969a
1,       6063,       6063,       10,     2013, 0x8479a0e5
0,        182,        182,        1,   518400, 0x5fe59996
1,       6073,       6073,       10,     2013, 0x165298ef
1,       6083,       6083,       10,     2013, 0xdcadb4a1
1,       6093,       6093,       10,     2013, 0xa90e987c
1,       6103,       6103,       10,     2013, 0x1ac5b510
0,        183,        183,        1,   518400, 0x308af432
1,       6113,       6113,       10,     2013, 0x66728d85
1,       6128,       6128,       10,     2013, 0xe4859fc5
1,       6138,       6138,       10,     2013, 0x9901786e
0,        184,        184,        1,   518400, 0xc05a9eb1
1,       6148,       6148,       10,     2013, 0x6aebb406
1,       6158,       6158,       10,     2013, 0x7d13a2cc
1,       6168,       6168,       10,     2013, 0x99b7a8cc
0,        185,        185,        1,   518400, 0xb9a02e51
1,       6178,       6178,       10,     2013, 0x80b8a624
1,       6188,       6188,       10,     2013, 0xbb6aa271
1,       6198,       6198,       10,     2013, 0x17af9e4a
0,        186,        186,        1,   518400, 0xbd9543aa
1,       6214,       6214,       10,     2013, 0xfaf0a8f1
1,       6224,       6224,       10,     2013, 0xd6849b93
1,       6234,       6234,       10,     2013, 0xe9829669
0,        187,        187,        1,   518400, 0x0a0cb795
1,       6244,       6244,       10,     2013, 0x7ec98944
1,       6254,       6254,       10,     2013, 0x2b2099a4
1,       6264,       6264,       10,     2013, 0x1033a82f
0,        188,        188,        1,   518400, 0xe4bb8a0c
1,       6274,       6274,       10,     2013, 0x5ec88990
1,       6284,       6284,       10,     2013, 0xd2a19b3d
1,       6299,       6299,       10,     2013, 0xa377b268
0,        189,        189,        1,   518400, 0x226fd11e
1,       6309,       6309,       10,     2013, 0xfa859901
1,       6319,       6319,       10,     2013, 0x1713955a
1,       6329,       6329,       10,     2013, 0x70aab0da
1,       6339,       6339,       10,     2013, 0xcdaea422
0,        190,        190,        1,   518400, 0x76e1604d
1,       6349,       6349,       10,     2013, 0x65c3bf80
1,       6359,       6359,       10,     2013, 0x1d75a55f
1,       6369,       6369,       10,     2013, 0xa5bea4de
0,        191,        191,        1,   518400, 0xca06117c
1,       6384,       6384,       10,     2013, 0x184db71c
1,       6394,       6394,       10,     2013, 0x99858ec8
1,       6404,       6404,       10,     2013, 0xb8f2aee5
0,        192,        192,        1,   518400, 0xeca14952
1,       6414,       6414,       10,     2013, 0x4435b2ef
1,       6424,       6424,       10,     2013, 0x8acfa6c7
1,       6434,       6434,       10,     2013, 0x42b4c01f
0,        193,        193,        1,   518400, 0x3106dbee
1,       6444,       6444,       10,     2013, 0x6e308c13
1,       6454,       6454,       10,     2013, 0x8227a0f6
1,       6470,       6470,       10,     2013, 0x6f12a7a2
0,        194,        194,        1,   518400, 0x57fa6392
1,       6480,       6480,       10,     2013, 0x785392be
1,       6490,       6490,       10,     2013, 0x81849c2b
1,       6500,       6500,       10,     2013, 0x5cf2af65
0,        195,        195,        1,   518400, 0x47651ac8
1,       6510,       6510,       10,     2013, 0x0c6ca6b4
1,       6520,       6520,       10,     2013, 0x412fab9f
1,       6530,       6530,       10,     2013, 0x08e792b4
0,        196,        196,        1,   518400, 0x3c1ba6a5
1,       6540,       6540,       10,     2013, 0x407aace3
1,       6555,       6555,       10,     2013, 0xd26bac16
1,       6565,       6565,       10,     2013, 0xac8bb295
0,        197,        197,        1,   518400, 0xbc3ec05b
1,       6575,       6575,       10,     2013, 0xddd1949c
1,       6585,       6585,       10,     2013, 0x6b26b868
1,       6595,       6595,       10,     2013, 0x5eaba587
1,       6605,       6605,       10,     2013, 0xef0793b9
0,        198,        198,        1,   518400, 0xd6ae59da
1,       6615,       6615,       10,     2013, 0xdef19bd6
1,       6625,       6625,       10,     2013, 0xca98a635
0,        199,        199,        1,   518400, 0xc62f0e63
1,       6640,       6640,       10,     2013, 0x06269a5a
1,       6650,       6650,       10,     2013, 0x32cb9952
1,       6660,       6660,       10,     2013, 0xf01fa95a
1,       6670,       6670,       10,     2013, 0xefab9e55
0,        200,        200,        1,   518400, 0xae96cc02
1,       6680,       6680,       10,     2013, 0x55a3b63a
1,       6690,       6690,       10,     2013, 0xcd36a553
1,       6700,       6700,       10,     2013, 0x2ec19877
0,        201,        201,        1,   518400, 0x2aa0917b
1,       6710,       6710,       10,     2013, 0xc18b924c
1,       6726,       6726,       10,     2013, 0xf132b04c
1,       6736,       6736,       10,     2013, 0x7975a44d
0,        202,        202,        1,   518400, 0xf0d13b48
1,       6746,       6746,       10,     2013, 0x2aaf94cb
1,       6756,       6756,       10,     2013, 0x58cfa60f
1,       6766,       6766,       10,     2013, 0x9757a658
0,        203,        203,        1,   518400, 0x067f56f8
1,       6776,       6776,       10,     2013, 0x67ebc0d5
1,       6786,       6786,       10,     2013, 0x3c50a70e
1,       6796,       6796,       10,     2013, 0x9c5799c6
0,        204,        204,        1,   518400, 0x1026025c
1,       6811,       6811,       10,     2013, 0x018d85b2
1,       6821,       6821,       10,     2013, 0x5367a956
0,        205,        205,        1,   518400, 0x11ee7f7f
0,        208,        208,        1,   518400, 0x30a6b398
0,        240,        240,        1,   518400, 0x9d2e3977
